<mxfile host="app.diagrams.net" agent="Mozilla/5.0 (Windows NT 10.0; Win64; x64) AppleWebKit/537.36 (KHTML, like Gecko) Chrome/134.0.0.0 Safari/537.36" version="26.1.3">
  <diagram name="Página-1" id="1hL9Om-VZf7akXX2MLqt">
    <mxGraphModel dx="1311" dy="666" grid="1" gridSize="10" guides="1" tooltips="1" connect="1" arrows="1" fold="1" page="1" pageScale="1" pageWidth="827" pageHeight="1169" math="0" shadow="0">
      <root>
        <mxCell id="0" />
        <mxCell id="1" parent="0" />
        <mxCell id="CLTjU7gQj4OqJzBRMQx3-3" value="Competição" style="html=1;dropTarget=0;whiteSpace=wrap;" vertex="1" parent="1">
          <mxGeometry x="9" y="710" width="130" height="60" as="geometry" />
        </mxCell>
        <mxCell id="CLTjU7gQj4OqJzBRMQx3-4" value="" style="shape=module;jettyWidth=8;jettyHeight=4;" vertex="1" parent="CLTjU7gQj4OqJzBRMQx3-3">
          <mxGeometry x="1" width="20" height="20" relative="1" as="geometry">
            <mxPoint x="-27" y="7" as="offset" />
          </mxGeometry>
        </mxCell>
        <mxCell id="CLTjU7gQj4OqJzBRMQx3-9" value="Local" style="html=1;dropTarget=0;whiteSpace=wrap;" vertex="1" parent="1">
          <mxGeometry x="164" y="710" width="100" height="60" as="geometry" />
        </mxCell>
        <mxCell id="CLTjU7gQj4OqJzBRMQx3-10" value="" style="shape=module;jettyWidth=8;jettyHeight=4;" vertex="1" parent="CLTjU7gQj4OqJzBRMQx3-9">
          <mxGeometry x="1" width="20" height="20" relative="1" as="geometry">
            <mxPoint x="-27" y="7" as="offset" />
          </mxGeometry>
        </mxCell>
        <mxCell id="CLTjU7gQj4OqJzBRMQx3-11" value="Inscrição" style="html=1;dropTarget=0;whiteSpace=wrap;" vertex="1" parent="1">
          <mxGeometry x="704" y="710" width="110" height="60" as="geometry" />
        </mxCell>
        <mxCell id="CLTjU7gQj4OqJzBRMQx3-12" value="" style="shape=module;jettyWidth=8;jettyHeight=4;" vertex="1" parent="CLTjU7gQj4OqJzBRMQx3-11">
          <mxGeometry x="1" width="20" height="20" relative="1" as="geometry">
            <mxPoint x="-27" y="7" as="offset" />
          </mxGeometry>
        </mxCell>
        <mxCell id="CLTjU7gQj4OqJzBRMQx3-13" value="Resultados" style="html=1;dropTarget=0;whiteSpace=wrap;" vertex="1" parent="1">
          <mxGeometry x="289" y="710" width="120" height="60" as="geometry" />
        </mxCell>
        <mxCell id="CLTjU7gQj4OqJzBRMQx3-14" value="" style="shape=module;jettyWidth=8;jettyHeight=4;" vertex="1" parent="CLTjU7gQj4OqJzBRMQx3-13">
          <mxGeometry x="1" width="20" height="20" relative="1" as="geometry">
            <mxPoint x="-27" y="7" as="offset" />
          </mxGeometry>
        </mxCell>
        <mxCell id="CLTjU7gQj4OqJzBRMQx3-15" value="Relatórios" style="html=1;dropTarget=0;whiteSpace=wrap;" vertex="1" parent="1">
          <mxGeometry x="420" y="710" width="120" height="60" as="geometry" />
        </mxCell>
        <mxCell id="CLTjU7gQj4OqJzBRMQx3-16" value="" style="shape=module;jettyWidth=8;jettyHeight=4;" vertex="1" parent="CLTjU7gQj4OqJzBRMQx3-15">
          <mxGeometry x="1" width="20" height="20" relative="1" as="geometry">
            <mxPoint x="-27" y="7" as="offset" />
          </mxGeometry>
        </mxCell>
        <mxCell id="CLTjU7gQj4OqJzBRMQx3-19" value="Atletas" style="html=1;dropTarget=0;whiteSpace=wrap;" vertex="1" parent="1">
          <mxGeometry x="570" y="710" width="100" height="60" as="geometry" />
        </mxCell>
        <mxCell id="CLTjU7gQj4OqJzBRMQx3-20" value="" style="shape=module;jettyWidth=8;jettyHeight=4;" vertex="1" parent="CLTjU7gQj4OqJzBRMQx3-19">
          <mxGeometry x="1" width="20" height="20" relative="1" as="geometry">
            <mxPoint x="-27" y="7" as="offset" />
          </mxGeometry>
        </mxCell>
        <mxCell id="CLTjU7gQj4OqJzBRMQx3-25" style="edgeStyle=orthogonalEdgeStyle;rounded=0;orthogonalLoop=1;jettySize=auto;html=1;endArrow=none;startFill=0;" edge="1" parent="1" source="CLTjU7gQj4OqJzBRMQx3-21">
          <mxGeometry relative="1" as="geometry">
            <mxPoint x="74" y="590" as="targetPoint" />
            <Array as="points">
              <mxPoint x="412" y="590" />
              <mxPoint x="74" y="590" />
            </Array>
          </mxGeometry>
        </mxCell>
        <mxCell id="CLTjU7gQj4OqJzBRMQx3-21" value="API LAYER" style="html=1;dropTarget=0;whiteSpace=wrap;" vertex="1" parent="1">
          <mxGeometry x="339" y="480" width="146" height="60" as="geometry" />
        </mxCell>
        <mxCell id="CLTjU7gQj4OqJzBRMQx3-22" value="" style="shape=module;jettyWidth=8;jettyHeight=4;" vertex="1" parent="CLTjU7gQj4OqJzBRMQx3-21">
          <mxGeometry x="1" width="20" height="20" relative="1" as="geometry">
            <mxPoint x="-27" y="7" as="offset" />
          </mxGeometry>
        </mxCell>
        <mxCell id="CLTjU7gQj4OqJzBRMQx3-28" style="edgeStyle=orthogonalEdgeStyle;rounded=0;orthogonalLoop=1;jettySize=auto;html=1;endArrow=none;startFill=0;" edge="1" parent="1">
          <mxGeometry relative="1" as="geometry">
            <mxPoint x="409" y="590" as="sourcePoint" />
            <mxPoint x="759" y="590" as="targetPoint" />
            <Array as="points">
              <mxPoint x="669" y="590" />
            </Array>
          </mxGeometry>
        </mxCell>
        <mxCell id="CLTjU7gQj4OqJzBRMQx3-43" value="" style="rounded=0;orthogonalLoop=1;jettySize=auto;html=1;endArrow=halfCircle;endFill=0;endSize=6;strokeWidth=1;sketch=0;" edge="1" target="CLTjU7gQj4OqJzBRMQx3-45" parent="1">
          <mxGeometry relative="1" as="geometry">
            <mxPoint x="349" y="590" as="sourcePoint" />
          </mxGeometry>
        </mxCell>
        <mxCell id="CLTjU7gQj4OqJzBRMQx3-44" value="" style="rounded=0;orthogonalLoop=1;jettySize=auto;html=1;endArrow=oval;endFill=0;sketch=0;sourcePerimeterSpacing=0;targetPerimeterSpacing=0;endSize=10;exitX=0.5;exitY=0;exitDx=0;exitDy=0;" edge="1" target="CLTjU7gQj4OqJzBRMQx3-45" parent="1" source="CLTjU7gQj4OqJzBRMQx3-46">
          <mxGeometry relative="1" as="geometry">
            <mxPoint x="359" y="660" as="sourcePoint" />
          </mxGeometry>
        </mxCell>
        <mxCell id="CLTjU7gQj4OqJzBRMQx3-45" value="" style="ellipse;whiteSpace=wrap;html=1;align=center;aspect=fixed;fillColor=none;strokeColor=none;resizable=0;perimeter=centerPerimeter;rotatable=0;allowArrows=0;points=[];outlineConnect=1;" vertex="1" parent="1">
          <mxGeometry x="344" y="620" width="10" height="10" as="geometry" />
        </mxCell>
        <mxCell id="CLTjU7gQj4OqJzBRMQx3-48" value="" style="rounded=0;orthogonalLoop=1;jettySize=auto;html=1;endArrow=halfCircle;endFill=0;endSize=6;strokeWidth=1;sketch=0;" edge="1" parent="1" target="CLTjU7gQj4OqJzBRMQx3-50">
          <mxGeometry relative="1" as="geometry">
            <mxPoint x="479" y="590" as="sourcePoint" />
          </mxGeometry>
        </mxCell>
        <mxCell id="CLTjU7gQj4OqJzBRMQx3-49" value="" style="rounded=0;orthogonalLoop=1;jettySize=auto;html=1;endArrow=oval;endFill=0;sketch=0;sourcePerimeterSpacing=0;targetPerimeterSpacing=0;endSize=10;exitX=0.5;exitY=0;exitDx=0;exitDy=0;" edge="1" parent="1" target="CLTjU7gQj4OqJzBRMQx3-50" source="CLTjU7gQj4OqJzBRMQx3-51">
          <mxGeometry relative="1" as="geometry">
            <mxPoint x="359" y="680" as="sourcePoint" />
          </mxGeometry>
        </mxCell>
        <mxCell id="CLTjU7gQj4OqJzBRMQx3-50" value="" style="ellipse;whiteSpace=wrap;html=1;align=center;aspect=fixed;fillColor=none;strokeColor=none;resizable=0;perimeter=centerPerimeter;rotatable=0;allowArrows=0;points=[];outlineConnect=1;" vertex="1" parent="1">
          <mxGeometry x="475" y="620" width="10" height="10" as="geometry" />
        </mxCell>
        <mxCell id="CLTjU7gQj4OqJzBRMQx3-53" value="" style="rounded=0;orthogonalLoop=1;jettySize=auto;html=1;endArrow=halfCircle;endFill=0;endSize=6;strokeWidth=1;sketch=0;" edge="1" parent="1" target="CLTjU7gQj4OqJzBRMQx3-55">
          <mxGeometry relative="1" as="geometry">
            <mxPoint x="214" y="590" as="sourcePoint" />
          </mxGeometry>
        </mxCell>
        <mxCell id="CLTjU7gQj4OqJzBRMQx3-54" value="" style="rounded=0;orthogonalLoop=1;jettySize=auto;html=1;endArrow=oval;endFill=0;sketch=0;sourcePerimeterSpacing=0;targetPerimeterSpacing=0;endSize=10;exitX=0.5;exitY=0;exitDx=0;exitDy=0;" edge="1" parent="1" target="CLTjU7gQj4OqJzBRMQx3-55" source="CLTjU7gQj4OqJzBRMQx3-56">
          <mxGeometry relative="1" as="geometry">
            <mxPoint x="369" y="690" as="sourcePoint" />
          </mxGeometry>
        </mxCell>
        <mxCell id="CLTjU7gQj4OqJzBRMQx3-55" value="" style="ellipse;whiteSpace=wrap;html=1;align=center;aspect=fixed;fillColor=none;strokeColor=none;resizable=0;perimeter=centerPerimeter;rotatable=0;allowArrows=0;points=[];outlineConnect=1;" vertex="1" parent="1">
          <mxGeometry x="209" y="620" width="10" height="10" as="geometry" />
        </mxCell>
        <mxCell id="CLTjU7gQj4OqJzBRMQx3-57" value="" style="rounded=0;orthogonalLoop=1;jettySize=auto;html=1;endArrow=halfCircle;endFill=0;endSize=6;strokeWidth=1;sketch=0;" edge="1" parent="1" target="CLTjU7gQj4OqJzBRMQx3-59">
          <mxGeometry relative="1" as="geometry">
            <mxPoint x="620" y="590" as="sourcePoint" />
          </mxGeometry>
        </mxCell>
        <mxCell id="CLTjU7gQj4OqJzBRMQx3-58" value="" style="rounded=0;orthogonalLoop=1;jettySize=auto;html=1;endArrow=oval;endFill=0;sketch=0;sourcePerimeterSpacing=0;targetPerimeterSpacing=0;endSize=10;exitX=0.5;exitY=0;exitDx=0;exitDy=0;" edge="1" parent="1" target="CLTjU7gQj4OqJzBRMQx3-59" source="CLTjU7gQj4OqJzBRMQx3-61">
          <mxGeometry relative="1" as="geometry">
            <mxPoint x="379" y="700" as="sourcePoint" />
          </mxGeometry>
        </mxCell>
        <mxCell id="CLTjU7gQj4OqJzBRMQx3-59" value="" style="ellipse;whiteSpace=wrap;html=1;align=center;aspect=fixed;fillColor=none;strokeColor=none;resizable=0;perimeter=centerPerimeter;rotatable=0;allowArrows=0;points=[];outlineConnect=1;" vertex="1" parent="1">
          <mxGeometry x="615" y="620" width="10" height="10" as="geometry" />
        </mxCell>
        <mxCell id="CLTjU7gQj4OqJzBRMQx3-67" value="" style="rounded=0;orthogonalLoop=1;jettySize=auto;html=1;endArrow=halfCircle;endFill=0;endSize=6;strokeWidth=1;sketch=0;" edge="1" parent="1" target="CLTjU7gQj4OqJzBRMQx3-69">
          <mxGeometry relative="1" as="geometry">
            <mxPoint x="74" y="590" as="sourcePoint" />
          </mxGeometry>
        </mxCell>
        <mxCell id="CLTjU7gQj4OqJzBRMQx3-68" value="" style="rounded=0;orthogonalLoop=1;jettySize=auto;html=1;endArrow=oval;endFill=0;sketch=0;sourcePerimeterSpacing=0;targetPerimeterSpacing=0;endSize=10;exitX=0.5;exitY=0;exitDx=0;exitDy=0;" edge="1" parent="1" target="CLTjU7gQj4OqJzBRMQx3-69" source="CLTjU7gQj4OqJzBRMQx3-70">
          <mxGeometry relative="1" as="geometry">
            <mxPoint x="224" y="680" as="sourcePoint" />
          </mxGeometry>
        </mxCell>
        <mxCell id="CLTjU7gQj4OqJzBRMQx3-69" value="" style="ellipse;whiteSpace=wrap;html=1;align=center;aspect=fixed;fillColor=none;strokeColor=none;resizable=0;perimeter=centerPerimeter;rotatable=0;allowArrows=0;points=[];outlineConnect=1;" vertex="1" parent="1">
          <mxGeometry x="69" y="620" width="10" height="10" as="geometry" />
        </mxCell>
        <mxCell id="CLTjU7gQj4OqJzBRMQx3-71" value="" style="rounded=0;orthogonalLoop=1;jettySize=auto;html=1;endArrow=halfCircle;endFill=0;endSize=6;strokeWidth=1;sketch=0;" edge="1" parent="1" target="CLTjU7gQj4OqJzBRMQx3-73">
          <mxGeometry relative="1" as="geometry">
            <mxPoint x="759" y="590" as="sourcePoint" />
          </mxGeometry>
        </mxCell>
        <mxCell id="CLTjU7gQj4OqJzBRMQx3-72" value="" style="rounded=0;orthogonalLoop=1;jettySize=auto;html=1;endArrow=oval;endFill=0;sketch=0;sourcePerimeterSpacing=0;targetPerimeterSpacing=0;endSize=10;exitX=0.5;exitY=0;exitDx=0;exitDy=0;" edge="1" parent="1" target="CLTjU7gQj4OqJzBRMQx3-73" source="CLTjU7gQj4OqJzBRMQx3-60">
          <mxGeometry relative="1" as="geometry">
            <mxPoint x="234" y="690" as="sourcePoint" />
            <Array as="points" />
          </mxGeometry>
        </mxCell>
        <mxCell id="CLTjU7gQj4OqJzBRMQx3-73" value="" style="ellipse;whiteSpace=wrap;html=1;align=center;aspect=fixed;fillColor=none;strokeColor=none;resizable=0;perimeter=centerPerimeter;rotatable=0;allowArrows=0;points=[];outlineConnect=1;" vertex="1" parent="1">
          <mxGeometry x="754" y="620" width="10" height="10" as="geometry" />
        </mxCell>
        <mxCell id="CLTjU7gQj4OqJzBRMQx3-91" value="" style="rounded=0;orthogonalLoop=1;jettySize=auto;html=1;endArrow=halfCircle;endFill=0;endSize=6;strokeWidth=1;sketch=0;exitX=0.5;exitY=1;exitDx=0;exitDy=0;" edge="1" parent="1" target="CLTjU7gQj4OqJzBRMQx3-93" source="CLTjU7gQj4OqJzBRMQx3-3">
          <mxGeometry relative="1" as="geometry">
            <mxPoint x="84" y="600" as="sourcePoint" />
          </mxGeometry>
        </mxCell>
        <mxCell id="CLTjU7gQj4OqJzBRMQx3-92" value="" style="rounded=0;orthogonalLoop=1;jettySize=auto;html=1;endArrow=oval;endFill=0;sketch=0;sourcePerimeterSpacing=0;targetPerimeterSpacing=0;endSize=10;" edge="1" parent="1" target="CLTjU7gQj4OqJzBRMQx3-93" source="CLTjU7gQj4OqJzBRMQx3-94">
          <mxGeometry relative="1" as="geometry">
            <mxPoint x="80.5" y="760" as="sourcePoint" />
          </mxGeometry>
        </mxCell>
        <mxCell id="CLTjU7gQj4OqJzBRMQx3-93" value="" style="ellipse;whiteSpace=wrap;html=1;align=center;aspect=fixed;fillColor=none;strokeColor=none;resizable=0;perimeter=centerPerimeter;rotatable=0;allowArrows=0;points=[];outlineConnect=1;" vertex="1" parent="1">
          <mxGeometry x="69" y="800" width="10" height="10" as="geometry" />
        </mxCell>
        <mxCell id="CLTjU7gQj4OqJzBRMQx3-70" value="REST" style="text;html=1;align=center;verticalAlign=middle;resizable=0;points=[];autosize=1;strokeColor=none;fillColor=none;" vertex="1" parent="1">
          <mxGeometry x="44" y="640" width="60" height="30" as="geometry" />
        </mxCell>
        <mxCell id="CLTjU7gQj4OqJzBRMQx3-56" value="REST" style="text;html=1;align=center;verticalAlign=middle;resizable=0;points=[];autosize=1;strokeColor=none;fillColor=none;" vertex="1" parent="1">
          <mxGeometry x="184" y="640" width="60" height="30" as="geometry" />
        </mxCell>
        <mxCell id="CLTjU7gQj4OqJzBRMQx3-46" value="REST" style="text;html=1;align=center;verticalAlign=middle;resizable=0;points=[];autosize=1;strokeColor=none;fillColor=none;" vertex="1" parent="1">
          <mxGeometry x="319" y="640" width="60" height="30" as="geometry" />
        </mxCell>
        <mxCell id="CLTjU7gQj4OqJzBRMQx3-51" value="REST" style="text;html=1;align=center;verticalAlign=middle;resizable=0;points=[];autosize=1;strokeColor=none;fillColor=none;" vertex="1" parent="1">
          <mxGeometry x="449" y="640" width="60" height="30" as="geometry" />
        </mxCell>
        <mxCell id="CLTjU7gQj4OqJzBRMQx3-61" value="REST" style="text;html=1;align=center;verticalAlign=middle;resizable=0;points=[];autosize=1;strokeColor=none;fillColor=none;" vertex="1" parent="1">
          <mxGeometry x="590" y="640" width="60" height="30" as="geometry" />
        </mxCell>
        <mxCell id="CLTjU7gQj4OqJzBRMQx3-60" value="REST" style="text;html=1;align=center;verticalAlign=middle;resizable=0;points=[];autosize=1;strokeColor=none;fillColor=none;" vertex="1" parent="1">
          <mxGeometry x="729" y="640" width="60" height="30" as="geometry" />
        </mxCell>
        <mxCell id="CLTjU7gQj4OqJzBRMQx3-94" value="HTTP" style="text;html=1;align=center;verticalAlign=middle;resizable=0;points=[];autosize=1;strokeColor=none;fillColor=none;" vertex="1" parent="1">
          <mxGeometry x="49" y="810" width="50" height="30" as="geometry" />
        </mxCell>
        <mxCell id="CLTjU7gQj4OqJzBRMQx3-104" value="" style="endArrow=none;html=1;rounded=0;entryX=0.5;entryY=1;entryDx=0;entryDy=0;entryPerimeter=0;exitX=0.5;exitY=0;exitDx=0;exitDy=0;" edge="1" parent="1" source="CLTjU7gQj4OqJzBRMQx3-11" target="CLTjU7gQj4OqJzBRMQx3-60">
          <mxGeometry width="50" height="50" relative="1" as="geometry">
            <mxPoint x="759" y="700" as="sourcePoint" />
            <mxPoint x="439" y="680" as="targetPoint" />
          </mxGeometry>
        </mxCell>
        <mxCell id="CLTjU7gQj4OqJzBRMQx3-105" value="" style="endArrow=none;html=1;rounded=0;entryX=0.5;entryY=1;entryDx=0;entryDy=0;entryPerimeter=0;" edge="1" parent="1">
          <mxGeometry width="50" height="50" relative="1" as="geometry">
            <mxPoint x="619.5" y="710" as="sourcePoint" />
            <mxPoint x="619.5" y="670" as="targetPoint" />
          </mxGeometry>
        </mxCell>
        <mxCell id="CLTjU7gQj4OqJzBRMQx3-106" value="" style="endArrow=none;html=1;rounded=0;entryX=0.5;entryY=1;entryDx=0;entryDy=0;entryPerimeter=0;" edge="1" parent="1">
          <mxGeometry width="50" height="50" relative="1" as="geometry">
            <mxPoint x="479.5" y="710" as="sourcePoint" />
            <mxPoint x="479.5" y="670" as="targetPoint" />
          </mxGeometry>
        </mxCell>
        <mxCell id="CLTjU7gQj4OqJzBRMQx3-107" value="" style="endArrow=none;html=1;rounded=0;entryX=0.5;entryY=1;entryDx=0;entryDy=0;entryPerimeter=0;" edge="1" parent="1">
          <mxGeometry width="50" height="50" relative="1" as="geometry">
            <mxPoint x="348.5" y="710" as="sourcePoint" />
            <mxPoint x="348.5" y="670" as="targetPoint" />
          </mxGeometry>
        </mxCell>
        <mxCell id="CLTjU7gQj4OqJzBRMQx3-108" value="" style="endArrow=none;html=1;rounded=0;entryX=0.5;entryY=1;entryDx=0;entryDy=0;entryPerimeter=0;" edge="1" parent="1">
          <mxGeometry width="50" height="50" relative="1" as="geometry">
            <mxPoint x="213.5" y="710" as="sourcePoint" />
            <mxPoint x="213.5" y="670" as="targetPoint" />
          </mxGeometry>
        </mxCell>
        <mxCell id="CLTjU7gQj4OqJzBRMQx3-109" value="" style="endArrow=none;html=1;rounded=0;entryX=0.5;entryY=1.033;entryDx=0;entryDy=0;entryPerimeter=0;exitX=0.5;exitY=0;exitDx=0;exitDy=0;" edge="1" parent="1" source="CLTjU7gQj4OqJzBRMQx3-3" target="CLTjU7gQj4OqJzBRMQx3-70">
          <mxGeometry width="50" height="50" relative="1" as="geometry">
            <mxPoint x="509.5" y="740" as="sourcePoint" />
            <mxPoint x="289" y="690" as="targetPoint" />
          </mxGeometry>
        </mxCell>
        <mxCell id="CLTjU7gQj4OqJzBRMQx3-110" value="" style="endArrow=none;html=1;rounded=0;entryX=0.5;entryY=1.033;entryDx=0;entryDy=0;entryPerimeter=0;" edge="1" parent="1">
          <mxGeometry width="50" height="50" relative="1" as="geometry">
            <mxPoint x="74" y="910" as="sourcePoint" />
            <mxPoint x="73.5" y="840" as="targetPoint" />
          </mxGeometry>
        </mxCell>
        <mxCell id="CLTjU7gQj4OqJzBRMQx3-111" value="" style="rounded=0;orthogonalLoop=1;jettySize=auto;html=1;endArrow=halfCircle;endFill=0;endSize=6;strokeWidth=1;sketch=0;exitX=0.35;exitY=0.106;exitDx=0;exitDy=0;exitPerimeter=0;" edge="1" parent="1" source="CLTjU7gQj4OqJzBRMQx3-113">
          <mxGeometry relative="1" as="geometry">
            <mxPoint x="213.5" y="800" as="sourcePoint" />
            <mxPoint x="214" y="840" as="targetPoint" />
          </mxGeometry>
        </mxCell>
        <mxCell id="CLTjU7gQj4OqJzBRMQx3-112" value="" style="rounded=0;orthogonalLoop=1;jettySize=auto;html=1;endArrow=oval;endFill=0;sketch=0;sourcePerimeterSpacing=0;targetPerimeterSpacing=0;endSize=10;" edge="1" parent="1" source="CLTjU7gQj4OqJzBRMQx3-114">
          <mxGeometry relative="1" as="geometry">
            <mxPoint x="220.5" y="770" as="sourcePoint" />
            <mxPoint x="214" y="840" as="targetPoint" />
          </mxGeometry>
        </mxCell>
        <mxCell id="CLTjU7gQj4OqJzBRMQx3-113" value="" style="ellipse;whiteSpace=wrap;html=1;align=center;aspect=fixed;fillColor=none;strokeColor=none;resizable=0;perimeter=centerPerimeter;rotatable=0;allowArrows=0;points=[];outlineConnect=1;" vertex="1" parent="1">
          <mxGeometry x="209" y="810" width="10" height="10" as="geometry" />
        </mxCell>
        <mxCell id="CLTjU7gQj4OqJzBRMQx3-115" value="" style="endArrow=none;html=1;rounded=0;entryX=0.5;entryY=1.033;entryDx=0;entryDy=0;entryPerimeter=0;" edge="1" parent="1" source="CLTjU7gQj4OqJzBRMQx3-114">
          <mxGeometry width="50" height="50" relative="1" as="geometry">
            <mxPoint x="213.5" y="920" as="sourcePoint" />
            <mxPoint x="213.5" y="850" as="targetPoint" />
          </mxGeometry>
        </mxCell>
        <mxCell id="CLTjU7gQj4OqJzBRMQx3-116" value="" style="rounded=0;orthogonalLoop=1;jettySize=auto;html=1;endArrow=halfCircle;endFill=0;endSize=6;strokeWidth=1;sketch=0;exitX=0.5;exitY=1;exitDx=0;exitDy=0;" edge="1" parent="1" target="CLTjU7gQj4OqJzBRMQx3-118">
          <mxGeometry relative="1" as="geometry">
            <mxPoint x="349" y="770" as="sourcePoint" />
          </mxGeometry>
        </mxCell>
        <mxCell id="CLTjU7gQj4OqJzBRMQx3-117" value="" style="rounded=0;orthogonalLoop=1;jettySize=auto;html=1;endArrow=oval;endFill=0;sketch=0;sourcePerimeterSpacing=0;targetPerimeterSpacing=0;endSize=10;" edge="1" parent="1" source="CLTjU7gQj4OqJzBRMQx3-119" target="CLTjU7gQj4OqJzBRMQx3-118">
          <mxGeometry relative="1" as="geometry">
            <mxPoint x="355.5" y="760" as="sourcePoint" />
          </mxGeometry>
        </mxCell>
        <mxCell id="CLTjU7gQj4OqJzBRMQx3-118" value="" style="ellipse;whiteSpace=wrap;html=1;align=center;aspect=fixed;fillColor=none;strokeColor=none;resizable=0;perimeter=centerPerimeter;rotatable=0;allowArrows=0;points=[];outlineConnect=1;" vertex="1" parent="1">
          <mxGeometry x="344" y="800" width="10" height="10" as="geometry" />
        </mxCell>
        <mxCell id="CLTjU7gQj4OqJzBRMQx3-119" value="HTTP" style="text;html=1;align=center;verticalAlign=middle;resizable=0;points=[];autosize=1;strokeColor=none;fillColor=none;" vertex="1" parent="1">
          <mxGeometry x="324" y="810" width="50" height="30" as="geometry" />
        </mxCell>
        <mxCell id="CLTjU7gQj4OqJzBRMQx3-120" value="" style="endArrow=none;html=1;rounded=0;entryX=0.5;entryY=1.033;entryDx=0;entryDy=0;entryPerimeter=0;" edge="1" parent="1">
          <mxGeometry width="50" height="50" relative="1" as="geometry">
            <mxPoint x="349" y="910" as="sourcePoint" />
            <mxPoint x="348.5" y="840" as="targetPoint" />
          </mxGeometry>
        </mxCell>
        <mxCell id="CLTjU7gQj4OqJzBRMQx3-121" value="" style="rounded=0;orthogonalLoop=1;jettySize=auto;html=1;endArrow=halfCircle;endFill=0;endSize=6;strokeWidth=1;sketch=0;exitX=0.5;exitY=1;exitDx=0;exitDy=0;" edge="1" parent="1" target="CLTjU7gQj4OqJzBRMQx3-123">
          <mxGeometry relative="1" as="geometry">
            <mxPoint x="479" y="770" as="sourcePoint" />
          </mxGeometry>
        </mxCell>
        <mxCell id="CLTjU7gQj4OqJzBRMQx3-122" value="" style="rounded=0;orthogonalLoop=1;jettySize=auto;html=1;endArrow=oval;endFill=0;sketch=0;sourcePerimeterSpacing=0;targetPerimeterSpacing=0;endSize=10;" edge="1" parent="1" source="CLTjU7gQj4OqJzBRMQx3-124" target="CLTjU7gQj4OqJzBRMQx3-123">
          <mxGeometry relative="1" as="geometry">
            <mxPoint x="485.5" y="760" as="sourcePoint" />
          </mxGeometry>
        </mxCell>
        <mxCell id="CLTjU7gQj4OqJzBRMQx3-123" value="" style="ellipse;whiteSpace=wrap;html=1;align=center;aspect=fixed;fillColor=none;strokeColor=none;resizable=0;perimeter=centerPerimeter;rotatable=0;allowArrows=0;points=[];outlineConnect=1;" vertex="1" parent="1">
          <mxGeometry x="474" y="800" width="10" height="10" as="geometry" />
        </mxCell>
        <mxCell id="CLTjU7gQj4OqJzBRMQx3-124" value="HTTP" style="text;html=1;align=center;verticalAlign=middle;resizable=0;points=[];autosize=1;strokeColor=none;fillColor=none;" vertex="1" parent="1">
          <mxGeometry x="454" y="810" width="50" height="30" as="geometry" />
        </mxCell>
        <mxCell id="CLTjU7gQj4OqJzBRMQx3-125" value="" style="endArrow=none;html=1;rounded=0;entryX=0.5;entryY=1.033;entryDx=0;entryDy=0;entryPerimeter=0;" edge="1" parent="1">
          <mxGeometry width="50" height="50" relative="1" as="geometry">
            <mxPoint x="479" y="910" as="sourcePoint" />
            <mxPoint x="478.5" y="840" as="targetPoint" />
          </mxGeometry>
        </mxCell>
        <mxCell id="CLTjU7gQj4OqJzBRMQx3-126" value="" style="rounded=0;orthogonalLoop=1;jettySize=auto;html=1;endArrow=halfCircle;endFill=0;endSize=6;strokeWidth=1;sketch=0;exitX=0.5;exitY=1;exitDx=0;exitDy=0;" edge="1" parent="1" target="CLTjU7gQj4OqJzBRMQx3-128">
          <mxGeometry relative="1" as="geometry">
            <mxPoint x="620" y="770" as="sourcePoint" />
          </mxGeometry>
        </mxCell>
        <mxCell id="CLTjU7gQj4OqJzBRMQx3-127" value="" style="rounded=0;orthogonalLoop=1;jettySize=auto;html=1;endArrow=oval;endFill=0;sketch=0;sourcePerimeterSpacing=0;targetPerimeterSpacing=0;endSize=10;" edge="1" parent="1" source="CLTjU7gQj4OqJzBRMQx3-129" target="CLTjU7gQj4OqJzBRMQx3-128">
          <mxGeometry relative="1" as="geometry">
            <mxPoint x="626.5" y="760" as="sourcePoint" />
          </mxGeometry>
        </mxCell>
        <mxCell id="CLTjU7gQj4OqJzBRMQx3-128" value="" style="ellipse;whiteSpace=wrap;html=1;align=center;aspect=fixed;fillColor=none;strokeColor=none;resizable=0;perimeter=centerPerimeter;rotatable=0;allowArrows=0;points=[];outlineConnect=1;" vertex="1" parent="1">
          <mxGeometry x="615" y="800" width="10" height="10" as="geometry" />
        </mxCell>
        <mxCell id="CLTjU7gQj4OqJzBRMQx3-129" value="HTTP" style="text;html=1;align=center;verticalAlign=middle;resizable=0;points=[];autosize=1;strokeColor=none;fillColor=none;" vertex="1" parent="1">
          <mxGeometry x="595" y="810" width="50" height="30" as="geometry" />
        </mxCell>
        <mxCell id="CLTjU7gQj4OqJzBRMQx3-130" value="" style="endArrow=none;html=1;rounded=0;entryX=0.5;entryY=1.033;entryDx=0;entryDy=0;entryPerimeter=0;" edge="1" parent="1">
          <mxGeometry width="50" height="50" relative="1" as="geometry">
            <mxPoint x="619.5" y="910" as="sourcePoint" />
            <mxPoint x="619.5" y="840" as="targetPoint" />
          </mxGeometry>
        </mxCell>
        <mxCell id="CLTjU7gQj4OqJzBRMQx3-131" value="" style="rounded=0;orthogonalLoop=1;jettySize=auto;html=1;endArrow=halfCircle;endFill=0;endSize=6;strokeWidth=1;sketch=0;" edge="1" parent="1" target="CLTjU7gQj4OqJzBRMQx3-133">
          <mxGeometry relative="1" as="geometry">
            <mxPoint x="759" y="820" as="sourcePoint" />
          </mxGeometry>
        </mxCell>
        <mxCell id="CLTjU7gQj4OqJzBRMQx3-132" value="" style="rounded=0;orthogonalLoop=1;jettySize=auto;html=1;endArrow=oval;endFill=0;sketch=0;sourcePerimeterSpacing=0;targetPerimeterSpacing=0;endSize=10;" edge="1" parent="1" source="CLTjU7gQj4OqJzBRMQx3-134" target="CLTjU7gQj4OqJzBRMQx3-133">
          <mxGeometry relative="1" as="geometry">
            <mxPoint x="765.5" y="760" as="sourcePoint" />
          </mxGeometry>
        </mxCell>
        <mxCell id="CLTjU7gQj4OqJzBRMQx3-133" value="" style="ellipse;whiteSpace=wrap;html=1;align=center;aspect=fixed;fillColor=none;strokeColor=none;resizable=0;perimeter=centerPerimeter;rotatable=0;allowArrows=0;points=[];outlineConnect=1;" vertex="1" parent="1">
          <mxGeometry x="754" y="830" width="10" height="10" as="geometry" />
        </mxCell>
        <mxCell id="CLTjU7gQj4OqJzBRMQx3-134" value="HTTP" style="text;html=1;align=center;verticalAlign=middle;resizable=0;points=[];autosize=1;strokeColor=none;fillColor=none;" vertex="1" parent="1">
          <mxGeometry x="734" y="850" width="50" height="30" as="geometry" />
        </mxCell>
        <mxCell id="CLTjU7gQj4OqJzBRMQx3-135" value="" style="endArrow=none;html=1;rounded=0;entryX=0.49;entryY=0.918;entryDx=0;entryDy=0;entryPerimeter=0;" edge="1" parent="1" source="CLTjU7gQj4OqJzBRMQx3-199" target="CLTjU7gQj4OqJzBRMQx3-134">
          <mxGeometry width="50" height="50" relative="1" as="geometry">
            <mxPoint x="758" y="900" as="sourcePoint" />
            <mxPoint x="759" y="890" as="targetPoint" />
          </mxGeometry>
        </mxCell>
        <mxCell id="CLTjU7gQj4OqJzBRMQx3-147" value="Interface de Usuário(Atleta) + Mobile" style="text;align=center;verticalAlign=middle;resizable=0;points=[];autosize=1;labelPosition=center;verticalLabelPosition=middle;fontSize=12;" vertex="1" parent="1">
          <mxGeometry x="560" y="540" width="220" height="30" as="geometry" />
        </mxCell>
        <mxCell id="CLTjU7gQj4OqJzBRMQx3-150" value="Interface de Usuário (Administrador) + Serviço Web" style="text;html=1;align=center;verticalAlign=middle;resizable=0;points=[];autosize=1;strokeColor=none;fillColor=none;" vertex="1" parent="1">
          <mxGeometry y="540" width="300" height="30" as="geometry" />
        </mxCell>
        <mxCell id="CLTjU7gQj4OqJzBRMQx3-152" style="edgeStyle=orthogonalEdgeStyle;rounded=0;orthogonalLoop=1;jettySize=auto;html=1;endArrow=none;startFill=0;" edge="1" parent="1">
          <mxGeometry relative="1" as="geometry">
            <mxPoint y="1000" as="sourcePoint" />
            <mxPoint x="550" y="570" as="targetPoint" />
            <Array as="points">
              <mxPoint y="570" />
            </Array>
          </mxGeometry>
        </mxCell>
        <mxCell id="CLTjU7gQj4OqJzBRMQx3-154" style="edgeStyle=orthogonalEdgeStyle;rounded=0;orthogonalLoop=1;jettySize=auto;html=1;endArrow=none;startFill=0;" edge="1" parent="1">
          <mxGeometry relative="1" as="geometry">
            <mxPoint y="1000" as="sourcePoint" />
            <mxPoint x="550" y="1000" as="targetPoint" />
            <Array as="points">
              <mxPoint x="445" y="1000" />
            </Array>
          </mxGeometry>
        </mxCell>
        <mxCell id="CLTjU7gQj4OqJzBRMQx3-155" value="" style="endArrow=none;html=1;rounded=0;entryX=0.5;entryY=1.033;entryDx=0;entryDy=0;entryPerimeter=0;" edge="1" parent="1">
          <mxGeometry width="50" height="50" relative="1" as="geometry">
            <mxPoint x="550" y="1000" as="sourcePoint" />
            <mxPoint x="550" y="570" as="targetPoint" />
          </mxGeometry>
        </mxCell>
        <mxCell id="CLTjU7gQj4OqJzBRMQx3-157" value="" style="endArrow=none;html=1;rounded=0;" edge="1" parent="1">
          <mxGeometry width="50" height="50" relative="1" as="geometry">
            <mxPoint x="562" y="1000" as="sourcePoint" />
            <mxPoint x="822" y="1000" as="targetPoint" />
          </mxGeometry>
        </mxCell>
        <mxCell id="CLTjU7gQj4OqJzBRMQx3-158" value="" style="endArrow=none;html=1;rounded=0;" edge="1" parent="1">
          <mxGeometry width="50" height="50" relative="1" as="geometry">
            <mxPoint x="820" y="1000" as="sourcePoint" />
            <mxPoint x="820" y="570" as="targetPoint" />
          </mxGeometry>
        </mxCell>
        <mxCell id="CLTjU7gQj4OqJzBRMQx3-161" value="SQS" style="rounded=0;whiteSpace=wrap;html=1;" vertex="1" parent="1">
          <mxGeometry x="734" y="790" width="50" height="30" as="geometry" />
        </mxCell>
        <mxCell id="CLTjU7gQj4OqJzBRMQx3-165" value="" style="verticalLabelPosition=bottom;html=1;verticalAlign=top;align=center;strokeColor=none;fillColor=#00BEF2;shape=mxgraph.azure.sql_database_sql_azure;" vertex="1" parent="1">
          <mxGeometry x="50.25" y="910" width="47.5" height="50" as="geometry" />
        </mxCell>
        <mxCell id="CLTjU7gQj4OqJzBRMQx3-166" value="" style="verticalLabelPosition=bottom;html=1;verticalAlign=top;align=center;strokeColor=none;fillColor=#00BEF2;shape=mxgraph.azure.sql_database_sql_azure;" vertex="1" parent="1">
          <mxGeometry x="196.5" y="940" width="47.5" height="50" as="geometry" />
        </mxCell>
        <mxCell id="CLTjU7gQj4OqJzBRMQx3-167" value="" style="verticalLabelPosition=bottom;html=1;verticalAlign=top;align=center;strokeColor=none;fillColor=#00BEF2;shape=mxgraph.azure.sql_database_sql_azure;" vertex="1" parent="1">
          <mxGeometry x="325.25" y="910" width="47.5" height="50" as="geometry" />
        </mxCell>
        <mxCell id="CLTjU7gQj4OqJzBRMQx3-168" value="" style="verticalLabelPosition=bottom;html=1;verticalAlign=top;align=center;strokeColor=none;fillColor=#00BEF2;shape=mxgraph.azure.sql_database_sql_azure;" vertex="1" parent="1">
          <mxGeometry x="456.25" y="910" width="47.5" height="50" as="geometry" />
        </mxCell>
        <mxCell id="CLTjU7gQj4OqJzBRMQx3-170" value="" style="verticalLabelPosition=bottom;html=1;verticalAlign=top;align=center;strokeColor=none;fillColor=#00BEF2;shape=mxgraph.azure.sql_database_sql_azure;" vertex="1" parent="1">
          <mxGeometry x="596.25" y="910" width="47.5" height="50" as="geometry" />
        </mxCell>
        <mxCell id="CLTjU7gQj4OqJzBRMQx3-171" value="" style="verticalLabelPosition=bottom;html=1;verticalAlign=top;align=center;strokeColor=none;fillColor=#00BEF2;shape=mxgraph.azure.sql_database_sql_azure;" vertex="1" parent="1">
          <mxGeometry x="741.5" y="940" width="47.5" height="50" as="geometry" />
        </mxCell>
        <mxCell id="CLTjU7gQj4OqJzBRMQx3-173" value="SQS" style="rounded=0;whiteSpace=wrap;html=1;" vertex="1" parent="1">
          <mxGeometry x="189" y="790" width="50" height="30" as="geometry" />
        </mxCell>
        <mxCell id="CLTjU7gQj4OqJzBRMQx3-174" value="" style="endArrow=none;html=1;rounded=0;entryX=0.5;entryY=1.033;entryDx=0;entryDy=0;entryPerimeter=0;exitX=0.35;exitY=0;exitDx=0;exitDy=0;exitPerimeter=0;" edge="1" parent="1" source="CLTjU7gQj4OqJzBRMQx3-166" target="CLTjU7gQj4OqJzBRMQx3-114">
          <mxGeometry width="50" height="50" relative="1" as="geometry">
            <mxPoint x="214" y="900" as="sourcePoint" />
            <mxPoint x="213.5" y="850" as="targetPoint" />
            <Array as="points">
              <mxPoint x="214" y="881" />
            </Array>
          </mxGeometry>
        </mxCell>
        <mxCell id="CLTjU7gQj4OqJzBRMQx3-114" value="HTTP" style="text;html=1;align=center;verticalAlign=middle;resizable=0;points=[];autosize=1;strokeColor=none;fillColor=none;" vertex="1" parent="1">
          <mxGeometry x="189" y="850" width="50" height="30" as="geometry" />
        </mxCell>
        <mxCell id="CLTjU7gQj4OqJzBRMQx3-175" value="" style="endArrow=none;html=1;rounded=0;entryX=0.49;entryY=0.918;entryDx=0;entryDy=0;entryPerimeter=0;" edge="1" parent="1">
          <mxGeometry width="50" height="50" relative="1" as="geometry">
            <mxPoint x="759.66" y="790" as="sourcePoint" />
            <mxPoint x="759.66" y="768" as="targetPoint" />
          </mxGeometry>
        </mxCell>
        <mxCell id="CLTjU7gQj4OqJzBRMQx3-176" value="" style="endArrow=none;html=1;rounded=0;entryX=0.49;entryY=0.918;entryDx=0;entryDy=0;entryPerimeter=0;" edge="1" parent="1">
          <mxGeometry width="50" height="50" relative="1" as="geometry">
            <mxPoint x="213.40999999999997" y="790" as="sourcePoint" />
            <mxPoint x="213.40999999999997" y="768" as="targetPoint" />
          </mxGeometry>
        </mxCell>
        <mxCell id="CLTjU7gQj4OqJzBRMQx3-179" value="" style="endArrow=none;html=1;rounded=0;" edge="1" parent="1">
          <mxGeometry width="50" height="50" relative="1" as="geometry">
            <mxPoint x="560" y="1000" as="sourcePoint" />
            <mxPoint x="560" y="570" as="targetPoint" />
          </mxGeometry>
        </mxCell>
        <mxCell id="CLTjU7gQj4OqJzBRMQx3-180" value="" style="endArrow=none;html=1;rounded=0;" edge="1" parent="1">
          <mxGeometry width="50" height="50" relative="1" as="geometry">
            <mxPoint x="560" y="568.8199999999999" as="sourcePoint" />
            <mxPoint x="820" y="568.8199999999999" as="targetPoint" />
          </mxGeometry>
        </mxCell>
        <mxCell id="CLTjU7gQj4OqJzBRMQx3-181" value="BACK-END" style="html=1;dropTarget=0;whiteSpace=wrap;" vertex="1" parent="1">
          <mxGeometry x="338" y="360" width="146" height="60" as="geometry" />
        </mxCell>
        <mxCell id="CLTjU7gQj4OqJzBRMQx3-182" value="" style="shape=module;jettyWidth=8;jettyHeight=4;" vertex="1" parent="CLTjU7gQj4OqJzBRMQx3-181">
          <mxGeometry x="1" width="20" height="20" relative="1" as="geometry">
            <mxPoint x="-27" y="7" as="offset" />
          </mxGeometry>
        </mxCell>
        <mxCell id="CLTjU7gQj4OqJzBRMQx3-190" value="RDS" style="rounded=0;whiteSpace=wrap;html=1;" vertex="1" parent="1">
          <mxGeometry x="423.25" y="1060" width="116" height="70" as="geometry" />
        </mxCell>
        <mxCell id="CLTjU7gQj4OqJzBRMQx3-191" value="Amazon CloudFront" style="rounded=0;whiteSpace=wrap;html=1;" vertex="1" parent="1">
          <mxGeometry x="625" y="1060" width="134" height="50" as="geometry" />
        </mxCell>
        <mxCell id="CLTjU7gQj4OqJzBRMQx3-193" value="SNS" style="rounded=0;whiteSpace=wrap;html=1;" vertex="1" parent="1">
          <mxGeometry x="49" y="860" width="50" height="30" as="geometry" />
        </mxCell>
        <mxCell id="CLTjU7gQj4OqJzBRMQx3-194" value="" style="endArrow=none;html=1;rounded=0;exitX=0.5;exitY=0;exitDx=0;exitDy=0;" edge="1" parent="1" source="CLTjU7gQj4OqJzBRMQx3-191">
          <mxGeometry width="50" height="50" relative="1" as="geometry">
            <mxPoint x="610.5" y="1090" as="sourcePoint" />
            <mxPoint x="692" y="1000" as="targetPoint" />
          </mxGeometry>
        </mxCell>
        <mxCell id="CLTjU7gQj4OqJzBRMQx3-195" value="" style="endArrow=none;html=1;rounded=0;exitX=0.25;exitY=0;exitDx=0;exitDy=0;" edge="1" parent="1" source="CLTjU7gQj4OqJzBRMQx3-190">
          <mxGeometry width="50" height="50" relative="1" as="geometry">
            <mxPoint x="289" y="1060" as="sourcePoint" />
            <mxPoint x="290" y="1000" as="targetPoint" />
          </mxGeometry>
        </mxCell>
        <mxCell id="CLTjU7gQj4OqJzBRMQx3-196" value="SNS" style="rounded=0;whiteSpace=wrap;html=1;" vertex="1" parent="1">
          <mxGeometry x="322.75" y="860" width="50" height="30" as="geometry" />
        </mxCell>
        <mxCell id="CLTjU7gQj4OqJzBRMQx3-197" value="SNS" style="rounded=0;whiteSpace=wrap;html=1;" vertex="1" parent="1">
          <mxGeometry x="456.25" y="860" width="50" height="30" as="geometry" />
        </mxCell>
        <mxCell id="CLTjU7gQj4OqJzBRMQx3-198" value="SNS" style="rounded=0;whiteSpace=wrap;html=1;" vertex="1" parent="1">
          <mxGeometry x="595" y="860" width="50" height="30" as="geometry" />
        </mxCell>
        <mxCell id="CLTjU7gQj4OqJzBRMQx3-200" value="" style="endArrow=none;html=1;rounded=0;entryX=0.49;entryY=0.918;entryDx=0;entryDy=0;entryPerimeter=0;exitX=0.35;exitY=0;exitDx=0;exitDy=0;exitPerimeter=0;" edge="1" parent="1" source="CLTjU7gQj4OqJzBRMQx3-171" target="CLTjU7gQj4OqJzBRMQx3-199">
          <mxGeometry width="50" height="50" relative="1" as="geometry">
            <mxPoint x="758" y="900" as="sourcePoint" />
            <mxPoint x="759" y="878" as="targetPoint" />
          </mxGeometry>
        </mxCell>
        <mxCell id="CLTjU7gQj4OqJzBRMQx3-199" value="SNS" style="rounded=0;whiteSpace=wrap;html=1;" vertex="1" parent="1">
          <mxGeometry x="734" y="890" width="50" height="30" as="geometry" />
        </mxCell>
        <mxCell id="CLTjU7gQj4OqJzBRMQx3-202" value="SNS" style="rounded=0;whiteSpace=wrap;html=1;" vertex="1" parent="1">
          <mxGeometry x="189" y="890" width="50" height="30" as="geometry" />
        </mxCell>
        <mxCell id="CLTjU7gQj4OqJzBRMQx3-203" style="edgeStyle=orthogonalEdgeStyle;rounded=0;orthogonalLoop=1;jettySize=auto;html=1;dashed=1;entryX=0.5;entryY=0;entryDx=0;entryDy=0;exitX=0.5;exitY=1;exitDx=0;exitDy=0;" edge="1" parent="1" source="CLTjU7gQj4OqJzBRMQx3-181" target="CLTjU7gQj4OqJzBRMQx3-21">
          <mxGeometry relative="1" as="geometry">
            <mxPoint x="480" y="460" as="sourcePoint" />
            <mxPoint x="421" y="430" as="targetPoint" />
          </mxGeometry>
        </mxCell>
        <mxCell id="CLTjU7gQj4OqJzBRMQx3-204" value="" style="endArrow=none;html=1;rounded=0;" edge="1" parent="1" source="CLTjU7gQj4OqJzBRMQx3-190">
          <mxGeometry width="50" height="50" relative="1" as="geometry">
            <mxPoint x="330" y="1060" as="sourcePoint" />
            <mxPoint x="610" y="1000" as="targetPoint" />
          </mxGeometry>
        </mxCell>
      </root>
    </mxGraphModel>
  </diagram>
</mxfile>
